<svg xmlns="http://www.w3.org/2000/svg" xmlns:xlink="http://www.w3.org/1999/xlink" version="1.1" width="24" height="24" enable-background="new 0 0 24 24" xml:space="preserve"><rect id="backgroundrect" width="100%" height="100%" x="0" y="0" fill="none" stroke="none"/>








<g class="currentLayer" style=""><title>Layer 1</title><g id="Header_x2F_BG" display="none">
	<rect x="-226" y="-226" display="inline" fill="#F1F1F2" width="520" height="520" id="svg_1"/>
</g><g id="Bounding_Boxes">
	<g id="ui_x5F_spec_x5F_header_copy_3">
	</g>
	<path fill="none" d="M0,0h24v24H0V0z" id="svg_2"/>
</g><g id="Rounded" class="" stroke-opacity="1" stroke="#0400ff" fill-opacity="1" fill="#0400ff">
	<g id="ui_x5F_spec_x5F_header_copy_5" stroke="#0400ff" fill="#0400ff">
	</g>
	<g id="svg_3" stroke="#0400ff" fill="#0400ff">
		<path d="M12,2C6.48,2,2,6.48,2,12s4.48,10,10,10c5.52,0,10-4.48,10-10S17.52,2,12,2z M12,20c-4.41,0-8-3.59-8-8s3.59-8,8-8    c4.41,0,8,3.59,8,8S16.41,20,12,20z" id="svg_4" stroke="#0400ff" fill="#0400ff"/>
		<path d="M15.88,8.29L10,14.17l-1.88-1.88c-0.39-0.39-1.02-0.39-1.41,0l0,0c-0.39,0.39-0.39,1.02,0,1.41l2.59,2.59    c0.39,0.39,1.02,0.39,1.41,0L17.3,9.7c0.39-0.39,0.39-1.02,0-1.41l0,0C16.91,7.9,16.27,7.9,15.88,8.29z" id="svg_5" stroke="#0400ff" fill="#0400ff"/>
	</g>
</g><g id="Sharp" display="none">
	<g id="ui_x5F_spec_x5F_header_copy_4" display="inline">
	</g>
	<g display="inline" id="svg_6">
		<path d="M12,2C6.48,2,2,6.48,2,12s4.48,10,10,10c5.52,0,10-4.48,10-10S17.52,2,12,2z M12,20c-4.41,0-8-3.59-8-8s3.59-8,8-8    c4.41,0,8,3.59,8,8S16.41,20,12,20z" id="svg_7"/>
		<polygon points="16.59,7.58 10,14.17 7.41,11.59 6,13 10,17 18,9   " id="svg_8"/>
	</g>
</g><g id="Outline" display="none">
	<g id="ui_x5F_spec_x5F_header" display="inline">
	</g>
	<g display="inline" id="svg_9">
		<path d="M12,2C6.48,2,2,6.48,2,12s4.48,10,10,10c5.52,0,10-4.48,10-10S17.52,2,12,2z M12,20c-4.41,0-8-3.59-8-8s3.59-8,8-8    c4.41,0,8,3.59,8,8S16.41,20,12,20z" id="svg_10"/>
		<polygon points="16.59,7.58 10,14.17 7.41,11.59 6,13 10,17 18,9   " id="svg_11"/>
	</g>
</g><g id="Duotone" display="none">
	<g id="ui_x5F_spec_x5F_header_copy_2" display="inline">
	</g>
	<g display="inline" id="svg_12">
		<path d="M12,2C6.48,2,2,6.48,2,12s4.48,10,10,10c5.52,0,10-4.48,10-10S17.52,2,12,2z M12,20c-4.41,0-8-3.59-8-8s3.59-8,8-8    c4.41,0,8,3.59,8,8S16.41,20,12,20z" id="svg_13"/>
		<polygon points="16.59,7.58 10,14.17 7.41,11.59 6,13 10,17 18,9   " id="svg_14"/>
	</g>
</g><g id="Fill" display="none">
	<g id="ui_x5F_spec_x5F_header_copy" display="inline">
	</g>
	<g display="inline" id="svg_15">
		<path d="M12,2C6.48,2,2,6.48,2,12s4.48,10,10,10c5.52,0,10-4.48,10-10S17.52,2,12,2z M12,20c-4.41,0-8-3.59-8-8s3.59-8,8-8    c4.41,0,8,3.59,8,8S16.41,20,12,20z" id="svg_16"/>
		<polygon points="16.59,7.58 10,14.17 7.41,11.59 6,13 10,17 18,9   " id="svg_17"/>
	</g>
</g><g id="nyt_x5F_exporter_x5F_info" display="none">
</g></g></svg>